<svg width="252" height="74" viewBox="0 0 252 74" fill="none" xmlns="http://www.w3.org/2000/svg">
<path d="M72.857 39.7185V16.1232H83.1041C84.5872 16.1232 85.8794 16.3817 86.9805 16.8985C88.0816 17.4154 88.9355 18.1457 89.5422 19.0895C90.149 20.0333 90.4523 21.1457 90.4523 22.4266V22.831C90.4523 24.2468 90.1153 25.3928 89.4411 26.2692C88.767 27.1456 87.9355 27.786 86.9468 28.1905V28.7973C87.8456 28.8422 88.5422 29.1568 89.0366 29.7411C89.531 30.3029 89.7782 31.0557 89.7782 31.9995V39.7185H85.3288V32.6399C85.3288 32.1006 85.1827 31.6624 84.8906 31.3253C84.6209 30.9883 84.1603 30.8197 83.5086 30.8197H77.3064V39.7185H72.857ZM77.3064 26.7748H82.6322C83.6884 26.7748 84.5086 26.4939 85.0928 25.9321C85.6996 25.3479 86.0029 24.5838 86.0029 23.64V23.3029C86.0029 22.3591 85.7108 21.6063 85.1266 21.0445C84.5423 20.4603 83.7108 20.1681 82.6322 20.1681H77.3064V26.7748ZM91.1884 39.7185L97.3906 16.1232H105.143L111.345 39.7185H106.761L105.48 34.5275H97.0535L95.7726 39.7185H91.1884ZM98.0984 30.4152H104.435L101.57 18.921H100.964L98.0984 30.4152ZM112.821 39.7185V16.1232H121.282L125.967 36.6848H126.574V16.1232H130.956V39.7185H122.496L117.81 19.1569H117.203V39.7185H112.821ZM141.265 39.7185V16.1232H145.714V25.8647H154.478V16.1232H158.928V39.7185H154.478V29.9096H145.714V39.7185H141.265ZM162.037 39.7185V16.1232H177.205V20.1681H166.486V25.7973H176.262V29.8422H166.486V35.6736H177.408V39.7185H162.037ZM177.735 39.7185L183.937 16.1232H191.69L197.892 39.7185H193.308L192.027 34.5275H183.6L182.319 39.7185H177.735ZM184.645 30.4152H190.982L188.117 18.921H187.51L184.645 30.4152ZM199.368 39.7185V16.1232H203.818V35.6736H214.604V39.7185H199.368ZM218.524 39.7185V20.1681H211.647V16.1232H229.849V20.1681H222.973V39.7185H218.524ZM231.531 39.7185V16.1232H235.981V25.8647H244.744V16.1232H249.194V39.7185H244.744V29.9096H235.981V39.7185H231.531Z" fill="#0060C7"/>
<path d="M72.9828 57.1425V47.1563H76.8061C77.4053 47.1563 77.9379 47.2752 78.4039 47.5129C78.8794 47.7412 79.2551 48.0693 79.5309 48.4973C79.8067 48.9253 79.9446 49.4436 79.9446 50.0523V50.2377C79.9446 50.8369 79.802 51.3552 79.5166 51.7927C79.2408 52.2207 78.8652 52.5488 78.3896 52.7771C77.9141 53.0053 77.3863 53.1195 76.8061 53.1195H74.1812V57.1425H72.9828ZM74.1812 52.0352H76.6777C77.3149 52.0352 77.819 51.8783 78.1899 51.5645C78.5608 51.2411 78.7463 50.7893 78.7463 50.2092V50.0665C78.7463 49.4864 78.5608 49.0394 78.1899 48.7255C77.8285 48.4022 77.3244 48.2405 76.6777 48.2405H74.1812V52.0352ZM85.8306 57.1425V47.1563H87.0289V51.593H91.7081V47.1563H92.9065V57.1425H91.7081V52.6772H87.0289V57.1425H85.8306ZM98.6877 57.1425L101.769 47.1563H103.881L106.962 57.1425H105.721L104.951 54.6174H100.699L99.9289 57.1425H98.6877ZM100.999 53.5332H104.637L102.925 47.8838H102.725L100.999 53.5332ZM112.738 57.1425V47.1563H116.775C117.394 47.1563 117.936 47.2657 118.402 47.4844C118.877 47.6936 119.248 47.998 119.514 48.3974C119.781 48.7874 119.914 49.2581 119.914 49.8098V49.9667C119.914 50.6229 119.757 51.1412 119.443 51.5217C119.129 51.9021 118.758 52.1589 118.33 52.292V52.4918C118.673 52.5013 118.953 52.6154 119.172 52.8341C119.4 53.0434 119.514 53.362 119.514 53.79V57.1425H118.33V53.9326C118.33 53.6473 118.249 53.4286 118.088 53.2764C117.936 53.1242 117.703 53.0481 117.389 53.0481H113.936V57.1425H112.738ZM113.936 51.9639H116.661C117.317 51.9639 117.821 51.807 118.173 51.4931C118.535 51.1698 118.715 50.7228 118.715 50.1521V50.0523C118.715 49.4816 118.54 49.0394 118.188 48.7255C117.836 48.4022 117.327 48.2405 116.661 48.2405H113.936V51.9639ZM126.018 57.1425V47.1563H128.3L130.954 56.3864H131.139L133.793 47.1563H136.075V57.1425H134.92V47.9409H134.72L132.081 57.1425H130.012L127.373 47.9409H127.173V57.1425H126.018ZM141.856 57.1425L144.938 47.1563H147.049L150.13 57.1425H148.889L148.119 54.6174H143.868L143.097 57.1425H141.856ZM144.167 53.5332H147.805L146.093 47.8838H145.893L144.167 53.5332ZM159.376 57.3422C158.188 57.3422 157.241 56.9998 156.538 56.315C155.834 55.6208 155.482 54.6126 155.482 53.2906V51.0081C155.482 49.6861 155.834 48.6827 156.538 47.998C157.241 47.3037 158.188 46.9566 159.376 46.9566C160.556 46.9566 161.459 47.2847 162.087 47.9409C162.724 48.5971 163.043 49.4959 163.043 50.6372V50.7085H161.859V50.5944C161.859 49.843 161.654 49.2296 161.245 48.7541C160.846 48.269 160.223 48.0265 159.376 48.0265C158.53 48.0265 157.869 48.288 157.394 48.8111C156.918 49.3247 156.68 50.0475 156.68 50.9796V53.3192C156.68 54.2512 156.918 54.9788 157.394 55.5019C157.869 56.0154 158.53 56.2722 159.376 56.2722C160.223 56.2722 160.846 56.0345 161.245 55.5589C161.654 55.0739 161.859 54.4557 161.859 53.7044V53.4761H163.043V53.6616C163.043 54.8028 162.724 55.7016 162.087 56.3578C161.459 57.0141 160.556 57.3422 159.376 57.3422ZM169.2 57.1425V47.1563H175.349V48.2405H170.398V51.5787H174.949V52.6629H170.398V56.0582H175.42V57.1425H169.2ZM185.128 57.3422C184.386 57.3422 183.739 57.209 183.187 56.9427C182.636 56.6764 182.208 56.2817 181.904 55.7587C181.599 55.2261 181.447 54.5746 181.447 53.8042V47.1563H182.631V53.8185C182.631 54.6364 182.85 55.2498 183.287 55.6588C183.725 56.0678 184.338 56.2722 185.128 56.2722C185.917 56.2722 186.53 56.0678 186.968 55.6588C187.405 55.2498 187.624 54.6364 187.624 53.8185V47.1563H188.823V53.8042C188.823 54.5746 188.67 55.2261 188.366 55.7587C188.062 56.2817 187.629 56.6764 187.068 56.9427C186.516 57.209 185.869 57.3422 185.128 57.3422ZM197.753 57.1425V48.2405H194.543V47.1563H202.161V48.2405H198.952V57.1425H197.753ZM207.966 57.1425V47.1563H209.164V57.1425H207.966ZM219.338 57.3422C218.149 57.3422 217.203 56.9998 216.499 56.315C215.795 55.6208 215.443 54.6126 215.443 53.2906V51.0081C215.443 49.6861 215.795 48.6827 216.499 47.998C217.203 47.3037 218.149 46.9566 219.338 46.9566C220.517 46.9566 221.421 47.2847 222.049 47.9409C222.686 48.5971 223.004 49.4959 223.004 50.6372V50.7085H221.82V50.5944C221.82 49.843 221.616 49.2296 221.207 48.7541C220.807 48.269 220.185 48.0265 219.338 48.0265C218.492 48.0265 217.831 48.288 217.355 48.8111C216.88 49.3247 216.642 50.0475 216.642 50.9796V53.3192C216.642 54.2512 216.88 54.9788 217.355 55.5019C217.831 56.0154 218.492 56.2722 219.338 56.2722C220.185 56.2722 220.807 56.0345 221.207 55.5589C221.616 55.0739 221.82 54.4557 221.82 53.7044V53.4761H223.004V53.6616C223.004 54.8028 222.686 55.7016 222.049 56.3578C221.421 57.0141 220.517 57.3422 219.338 57.3422ZM228.28 57.1425L231.361 47.1563H233.472L236.554 57.1425H235.313L234.542 54.6174H230.291L229.521 57.1425H228.28ZM230.591 53.5332H234.228L232.517 47.8838H232.317L230.591 53.5332ZM242.33 57.1425V47.1563H243.528V56.0582H248.578V57.1425H242.33Z" fill="#0060C7"/>
<path d="M47.8096 30.9085C47.8083 30.9085 47.8069 30.9088 47.8058 30.9094C39.0739 35.5472 32.9473 37.7112 30.5669 45.2082C30.411 45.7009 30.2275 46.2136 30.0367 46.8849C29.9194 47.2975 29.2155 47.2981 29.0977 46.8857C28.9086 46.224 28.7276 45.7159 28.5749 45.2287C26.1944 37.7311 20.0671 35.5673 11.3343 30.9289C5.76548 27.9723 2.89018 25.9213 1.42134 24.5431C1.10142 24.2429 0 24.6087 0 25.0474V44.0711C0 47.6501 1.92244 50.9756 5.01881 52.7671L24.6319 64.0932C25.1119 64.3718 25.5603 64.6058 26.0172 64.7964C26.3013 64.9149 26.5778 64.6497 26.489 64.3549C26.2972 63.7182 26.0801 63.0539 25.8344 62.3589C21.4682 50.1171 14.705 44.4552 11.1782 42.2119C10.8015 41.9723 10.9744 41.5234 11.3874 41.6929C13.5575 42.5834 16.9869 44.5402 21.1306 48.82C24.4543 52.2564 27.1019 56.3321 29.2385 60.5939C29.3791 60.8745 29.7777 60.8891 29.933 60.6165C31.1213 58.5305 34.9838 51.9301 38.0154 48.7995C42.159 44.5197 45.5884 42.563 47.7585 41.6724C48.1715 41.503 48.3444 41.9519 47.9678 42.1914C44.4409 44.4347 37.6778 50.0966 33.3115 62.3384C33.0629 63.0334 32.8472 63.6976 32.6563 64.3343C32.568 64.6292 32.8445 64.8941 33.1283 64.7749C33.5841 64.5834 34.0314 64.3485 34.5141 64.0727L54.1271 52.7467C57.2276 50.9551 59.1459 47.6297 59.1459 44.0506V25.0539C59.1459 24.6144 58.0269 24.241 57.7056 24.5409C56.2304 25.918 53.355 27.9628 47.8135 30.9075C47.8123 30.9081 47.811 30.9085 47.8096 30.9085V30.9085Z" fill="#28A745"/>
<path fill-rule="evenodd" clip-rule="evenodd" d="M57.4082 15.7007C56.5492 14.3304 55.5266 13.5164 54.0828 12.682L34.4411 1.34367C31.3406 -0.447889 27.4876 -0.447889 24.3871 1.34367L4.74543 12.682C3.1952 13.5778 1.11733 15.2303 0.953713 17.3163C0.584871 22.0181 6.31526 25.0504 10.5434 27.2878C10.7697 27.4075 10.9916 27.525 11.2081 27.6403C12.0891 28.1092 12.9328 28.5545 13.7416 28.9814L13.7418 28.9815C19.6776 32.1144 23.7375 34.2572 26.8945 37.4898C27.5064 38.1142 28.3879 39.1022 28.9758 40.0363C29.1595 40.3283 29.6688 40.3284 29.8528 40.0365C30.4416 39.1023 31.3249 38.1143 31.9337 37.4898C35.0956 34.2522 39.1599 32.1078 45.1126 28.9671L45.1126 28.9671L45.1137 28.9665C45.9142 28.5442 46.7489 28.1038 47.6201 27.6403C47.9135 27.4843 48.2166 27.3253 48.5264 27.1628C52.6524 24.9986 57.9848 22.2017 57.8745 17.3204C57.8663 16.9114 57.6863 16.1506 57.4082 15.7007ZM25.6189 6.95368H33.3141V14.0473H40.4075V21.7425H33.3141V28.8369H25.6189V21.7425H18.5244V14.0473H25.6189V6.95368Z" fill="#0060C7"/>
<rect x="13.5596" y="67.4113" width="31.9622" height="5.81131" rx="0.387421" fill="#28A745"/>
</svg>
