<svg width="144" height="32" viewBox="0 0 144 32" fill="none" xmlns="http://www.w3.org/2000/svg">
<path d="M31.0814 14.1622V2.9362H35.9567C36.6623 2.9362 37.2771 3.05915 37.801 3.30505C38.3249 3.55096 38.7311 3.89843 39.0198 4.34747C39.3085 4.79651 39.4528 5.32574 39.4528 5.93515V6.1276C39.4528 6.80116 39.2924 7.34643 38.9717 7.76339C38.651 8.18036 38.2554 8.48507 37.7849 8.67751V8.96618C38.2126 8.98756 38.544 9.13725 38.7793 9.41522C39.0145 9.68251 39.1321 10.0407 39.1321 10.4897V14.1622H37.0152V10.7944C37.0152 10.5378 36.9457 10.3293 36.8067 10.169C36.6784 10.0086 36.4592 9.92841 36.1492 9.92841H33.1983V14.1622H31.0814ZM33.1983 8.00395H35.7322C36.2347 8.00395 36.6249 7.87031 36.9029 7.60302C37.1916 7.32504 37.3359 6.96153 37.3359 6.51249V6.35212C37.3359 5.90308 37.1969 5.54491 36.9189 5.27763C36.641 4.99965 36.2454 4.86066 35.7322 4.86066H33.1983V8.00395ZM43.1067 14.3868C42.54 14.3868 42.0322 14.2905 41.5831 14.0981C41.1341 13.8949 40.7759 13.6063 40.5086 13.2321C40.252 12.8472 40.1237 12.3821 40.1237 11.8368C40.1237 11.2916 40.252 10.8372 40.5086 10.4737C40.7759 10.0995 41.1394 9.8215 41.5992 9.63974C42.0696 9.4473 42.6042 9.35107 43.2029 9.35107H45.3839V8.90203C45.3839 8.52783 45.2663 8.22313 45.0311 7.98791C44.7959 7.74201 44.4217 7.61906 43.9085 7.61906C43.406 7.61906 43.0318 7.73666 42.7859 7.97188C42.54 8.1964 42.3796 8.49041 42.3048 8.85392L40.4445 8.22847C40.5728 7.8222 40.7759 7.45334 41.0539 7.12191C41.3426 6.77978 41.7221 6.50715 42.1925 6.30401C42.6737 6.09018 43.2563 5.98326 43.9406 5.98326C44.9884 5.98326 45.8169 6.2452 46.4264 6.76909C47.0358 7.29297 47.3405 8.05206 47.3405 9.04637V12.0132C47.3405 12.334 47.4902 12.4944 47.7895 12.4944H48.431V14.1622H47.0839C46.6883 14.1622 46.3622 14.066 46.1056 13.8736C45.849 13.6811 45.7207 13.4245 45.7207 13.1038V13.0877H45.416C45.3733 13.216 45.277 13.3871 45.1274 13.6009C44.9777 13.8041 44.7425 13.9858 44.4217 14.1462C44.101 14.3066 43.6626 14.3868 43.1067 14.3868ZM43.4595 12.751C44.0261 12.751 44.4859 12.5959 44.8387 12.2859C45.2022 11.9651 45.3839 11.5428 45.3839 11.0189V10.8586H43.3472C42.973 10.8586 42.679 10.9388 42.4652 11.0991C42.2513 11.2595 42.1444 11.484 42.1444 11.7727C42.1444 12.0614 42.2567 12.2966 42.4812 12.4783C42.7057 12.6601 43.0318 12.751 43.4595 12.751ZM49.267 14.1622V6.20779H51.2556V7.2502H51.5442C51.6725 6.97222 51.9131 6.71028 52.2659 6.46438C52.6187 6.20779 53.1533 6.07949 53.8696 6.07949C54.4897 6.07949 55.0296 6.22382 55.4894 6.51249C55.9598 6.79047 56.3233 7.18071 56.5799 7.68321C56.8365 8.17501 56.9648 8.75235 56.9648 9.41522V14.1622H54.9441V9.5756C54.9441 8.97687 54.7944 8.52783 54.4951 8.22847C54.2064 7.92911 53.7894 7.77943 53.2442 7.77943C52.6241 7.77943 52.143 7.98791 51.8008 8.40488C51.4587 8.81116 51.2876 9.38315 51.2876 10.1209V14.1622H49.267ZM61.8741 14.1622V2.9362H63.991V7.57095H68.1606V2.9362H70.2775V14.1622H68.1606V9.49541H63.991V14.1622H61.8741ZM75.4455 14.3868C74.6544 14.3868 73.9541 14.221 73.3447 13.8896C72.7459 13.5475 72.2755 13.0717 71.9334 12.4623C71.602 11.8422 71.4362 11.1152 71.4362 10.2812V10.0888C71.4362 9.25485 71.602 8.53318 71.9334 7.92376C72.2648 7.30366 72.7299 6.82789 73.3286 6.49645C73.9273 6.15433 74.6223 5.98326 75.4135 5.98326C76.1939 5.98326 76.8728 6.15967 77.4502 6.51249C78.0275 6.85462 78.4766 7.33573 78.7973 7.95584C79.118 8.56525 79.2784 9.27623 79.2784 10.0888V10.7784H73.489C73.5104 11.3236 73.7135 11.7673 74.0984 12.1095C74.4833 12.4516 74.9537 12.6227 75.5097 12.6227C76.0763 12.6227 76.4933 12.4997 76.7606 12.2538C77.0279 12.0079 77.231 11.7353 77.37 11.4359L79.0218 12.3019C78.8721 12.5799 78.653 12.8846 78.3643 13.216C78.0863 13.5368 77.7121 13.8148 77.2417 14.05C76.7713 14.2745 76.1726 14.3868 75.4455 14.3868ZM73.505 9.27089H77.2257C77.1829 8.81116 76.9958 8.4423 76.6644 8.16432C76.3436 7.88634 75.9213 7.74736 75.3974 7.74736C74.8522 7.74736 74.4192 7.88634 74.0984 8.16432C73.7777 8.4423 73.5799 8.81116 73.505 9.27089ZM82.9052 14.3868C82.3386 14.3868 81.8307 14.2905 81.3817 14.0981C80.9326 13.8949 80.5745 13.6063 80.3072 13.2321C80.0506 12.8472 79.9223 12.3821 79.9223 11.8368C79.9223 11.2916 80.0506 10.8372 80.3072 10.4737C80.5745 10.0995 80.938 9.8215 81.3977 9.63974C81.8681 9.4473 82.4027 9.35107 83.0014 9.35107H85.1825V8.90203C85.1825 8.52783 85.0649 8.22313 84.8297 7.98791C84.5945 7.74201 84.2203 7.61906 83.7071 7.61906C83.2046 7.61906 82.8304 7.73666 82.5845 7.97188C82.3386 8.1964 82.1782 8.49041 82.1033 8.85392L80.243 8.22847C80.3713 7.8222 80.5745 7.45334 80.8524 7.12191C81.1411 6.77978 81.5207 6.50715 81.9911 6.30401C82.4722 6.09018 83.0549 5.98326 83.7391 5.98326C84.7869 5.98326 85.6155 6.2452 86.2249 6.76909C86.8343 7.29297 87.139 8.05206 87.139 9.04637V12.0132C87.139 12.334 87.2887 12.4944 87.5881 12.4944H88.2296V14.1622H86.8824C86.4868 14.1622 86.1608 14.066 85.9042 13.8736C85.6476 13.6811 85.5193 13.4245 85.5193 13.1038V13.0877H85.2146C85.1718 13.216 85.0756 13.3871 84.9259 13.6009C84.7762 13.8041 84.541 13.9858 84.2203 14.1462C83.8995 14.3066 83.4612 14.3868 82.9052 14.3868ZM83.258 12.751C83.8247 12.751 84.2844 12.5959 84.6372 12.2859C85.0007 11.9651 85.1825 11.5428 85.1825 11.0189V10.8586H83.1458C82.7716 10.8586 82.4775 10.9388 82.2637 11.0991C82.0499 11.2595 81.943 11.484 81.943 11.7727C81.943 12.0614 82.0552 12.2966 82.2798 12.4783C82.5043 12.6601 82.8304 12.751 83.258 12.751ZM89.0655 14.1622V2.9362H91.0862V14.1622H89.0655ZM95.7309 14.1622C95.2071 14.1622 94.7794 14.0019 94.448 13.6811C94.1272 13.3497 93.9669 12.9113 93.9669 12.3661V7.87565H91.9782V6.20779H93.9669V3.73806H95.9875V6.20779H98.1686V7.87565H95.9875V12.0132C95.9875 12.334 96.1372 12.4944 96.4366 12.4944H97.9762V14.1622H95.7309ZM99.3562 14.1622V2.9362H101.377V7.18605H101.666C101.751 7.01499 101.885 6.84393 102.067 6.67286C102.248 6.5018 102.489 6.36281 102.788 6.2559C103.098 6.13829 103.488 6.07949 103.959 6.07949C104.579 6.07949 105.119 6.22382 105.579 6.51249C106.049 6.79047 106.413 7.18071 106.669 7.68321C106.926 8.17501 107.054 8.75235 107.054 9.41522V14.1622H105.033V9.5756C105.033 8.97687 104.884 8.52783 104.584 8.22847C104.296 7.92911 103.879 7.77943 103.333 7.77943C102.713 7.77943 102.232 7.98791 101.89 8.40488C101.548 8.81116 101.377 9.38315 101.377 10.1209V14.1622H99.3562ZM31.0814 29.1622V17.9362H35.7001C36.4058 17.9362 37.0259 18.0805 37.5604 18.3692C38.1057 18.6472 38.528 19.0428 38.8274 19.556C39.1374 20.0691 39.2924 20.6786 39.2924 21.3842V21.6087C39.2924 22.3037 39.1321 22.9131 38.8113 23.437C38.5013 23.9501 38.0736 24.3511 37.5284 24.6397C36.9938 24.9177 36.3844 25.0567 35.7001 25.0567H33.1983V29.1622H31.0814ZM33.1983 23.1322H35.4916C35.9941 23.1322 36.4004 22.9933 36.7105 22.7153C37.0205 22.4373 37.1755 22.0578 37.1755 21.5766V21.4163C37.1755 20.9352 37.0205 20.5556 36.7105 20.2776C36.4004 19.9996 35.9941 19.8607 35.4916 19.8607H33.1983V23.1322ZM40.1828 29.1622V17.9362H42.2034V22.1861H42.4921C42.5776 22.015 42.7113 21.8439 42.893 21.6729C43.0748 21.5018 43.3154 21.3628 43.6147 21.2559C43.9248 21.1383 44.315 21.0795 44.7854 21.0795C45.4055 21.0795 45.9455 21.2238 46.4052 21.5125C46.8756 21.7905 47.2391 22.1807 47.4957 22.6832C47.7523 23.175 47.8806 23.7524 47.8806 24.4152V29.1622H45.8599V24.5756C45.8599 23.9769 45.7102 23.5278 45.4109 23.2285C45.1222 22.9291 44.7052 22.7794 44.16 22.7794C43.5399 22.7794 43.0588 22.9879 42.7166 23.4049C42.3745 23.8112 42.2034 24.3831 42.2034 25.1209V29.1622H40.1828ZM51.8933 29.3868C51.3266 29.3868 50.8188 29.2905 50.3698 29.0981C49.9207 28.8949 49.5626 28.6063 49.2953 28.2321C49.0387 27.8472 48.9104 27.3821 48.9104 26.8368C48.9104 26.2916 49.0387 25.8372 49.2953 25.4737C49.5626 25.0995 49.9261 24.8215 50.3858 24.6397C50.8562 24.4473 51.3908 24.3511 51.9895 24.3511H54.1706V23.902C54.1706 23.5278 54.053 23.2231 53.8178 22.9879C53.5825 22.742 53.2083 22.6191 52.6952 22.6191C52.1927 22.6191 51.8185 22.7367 51.5725 22.9719C51.3266 23.1964 51.1663 23.4904 51.0914 23.8539L49.2311 23.2285C49.3594 22.8222 49.5626 22.4533 49.8405 22.1219C50.1292 21.7798 50.5087 21.5071 50.9792 21.304C51.4603 21.0902 52.043 20.9833 52.7272 20.9833C53.775 20.9833 54.6036 21.2452 55.213 21.7691C55.8224 22.293 56.1271 23.0521 56.1271 24.0464V27.0132C56.1271 27.334 56.2768 27.4944 56.5762 27.4944H57.2176V29.1622H55.8705C55.4749 29.1622 55.1488 29.066 54.8922 28.8736C54.6357 28.6811 54.5074 28.4245 54.5074 28.1038V28.0877H54.2026C54.1599 28.216 54.0637 28.3871 53.914 28.6009C53.7643 28.8041 53.5291 28.9858 53.2083 29.1462C52.8876 29.3066 52.4492 29.3868 51.8933 29.3868ZM52.2461 27.751C52.8128 27.751 53.2725 27.5959 53.6253 27.2859C53.9888 26.9651 54.1706 26.5428 54.1706 26.0189V25.8586H52.1338C51.7596 25.8586 51.4656 25.9388 51.2518 26.0991C51.038 26.2595 50.9311 26.484 50.9311 26.7727C50.9311 27.0614 51.0433 27.2966 51.2678 27.4783C51.4924 27.6601 51.8185 27.751 52.2461 27.751ZM58.0536 29.1622V21.2078H60.0422V22.1059H60.3309C60.4485 21.7851 60.6409 21.5499 60.9082 21.4002C61.1862 21.2506 61.5069 21.1757 61.8704 21.1757H62.8327V22.9719H61.8384C61.3252 22.9719 60.9029 23.1109 60.5714 23.3888C60.24 23.6561 60.0743 24.0731 60.0743 24.6397V29.1622H58.0536ZM63.7706 29.1622V21.2078H65.7592V22.0738H66.0479C66.1869 21.8065 66.4167 21.5766 66.7375 21.3842C67.0582 21.1811 67.4805 21.0795 68.0044 21.0795C68.571 21.0795 69.0254 21.1917 69.3676 21.4163C69.7097 21.6301 69.9716 21.9134 70.1534 22.2662H70.4421C70.6238 21.9241 70.8804 21.6408 71.2118 21.4163C71.5433 21.1917 72.0137 21.0795 72.6231 21.0795C73.1149 21.0795 73.5586 21.1864 73.9542 21.4002C74.3605 21.6034 74.6812 21.9188 74.9164 22.3464C75.1623 22.7634 75.2853 23.2926 75.2853 23.9341V29.1622H73.2646V24.0784C73.2646 23.6401 73.1523 23.314 72.9278 23.1002C72.7033 22.8757 72.3879 22.7634 71.9816 22.7634C71.5219 22.7634 71.1637 22.9131 70.9071 23.2124C70.6612 23.5011 70.5383 23.9181 70.5383 24.4633V29.1622H68.5176V24.0784C68.5176 23.6401 68.4053 23.314 68.1808 23.1002C67.9563 22.8757 67.6409 22.7634 67.2346 22.7634C66.7749 22.7634 66.4167 22.9131 66.1601 23.2124C65.9142 23.5011 65.7913 23.9181 65.7913 24.4633V29.1622H63.7706ZM79.2868 29.3868C78.7202 29.3868 78.2123 29.2905 77.7633 29.0981C77.3142 28.8949 76.9561 28.6063 76.6888 28.2321C76.4322 27.8472 76.3039 27.3821 76.3039 26.8368C76.3039 26.2916 76.4322 25.8372 76.6888 25.4737C76.9561 25.0995 77.3196 24.8215 77.7793 24.6397C78.2497 24.4473 78.7843 24.3511 79.383 24.3511H81.5641V23.902C81.5641 23.5278 81.4465 23.2231 81.2113 22.9879C80.9761 22.742 80.6019 22.6191 80.0887 22.6191C79.5862 22.6191 79.212 22.7367 78.9661 22.9719C78.7202 23.1964 78.5598 23.4904 78.485 23.8539L76.6246 23.2285C76.7529 22.8222 76.9561 22.4533 77.2341 22.1219C77.5227 21.7798 77.9023 21.5071 78.3727 21.304C78.8538 21.0902 79.4365 20.9833 80.1207 20.9833C81.1685 20.9833 81.9971 21.2452 82.6065 21.7691C83.2159 22.293 83.5206 23.0521 83.5206 24.0464V27.0132C83.5206 27.334 83.6703 27.4944 83.9697 27.4944H84.6112V29.1622H83.264C82.8685 29.1622 82.5424 29.066 82.2858 28.8736C82.0292 28.6811 81.9009 28.4245 81.9009 28.1038V28.0877H81.5962C81.5534 28.216 81.4572 28.3871 81.3075 28.6009C81.1578 28.8041 80.9226 28.9858 80.6019 29.1462C80.2811 29.3066 79.8428 29.3868 79.2868 29.3868ZM79.6396 27.751C80.2063 27.751 80.666 27.5959 81.0188 27.2859C81.3823 26.9651 81.5641 26.5428 81.5641 26.0189V25.8586H79.5274C79.1532 25.8586 78.8592 25.9388 78.6453 26.0991C78.4315 26.2595 78.3246 26.484 78.3246 26.7727C78.3246 27.0614 78.4368 27.2966 78.6614 27.4783C78.8859 27.6601 79.212 27.751 79.6396 27.751ZM89.0272 29.3868C88.2574 29.3868 87.5571 29.2264 86.9263 28.9056C86.3062 28.5849 85.8144 28.1198 85.4509 27.5104C85.0874 26.901 84.9056 26.1633 84.9056 25.2973V25.0727C84.9056 24.2067 85.0874 23.469 85.4509 22.8596C85.8144 22.2502 86.3062 21.7851 86.9263 21.4644C87.5571 21.1436 88.2574 20.9833 89.0272 20.9833C89.7862 20.9833 90.4384 21.1169 90.9837 21.3842C91.529 21.6515 91.9673 22.0203 92.2987 22.4908C92.6409 22.9505 92.8654 23.4744 92.9723 24.0624L91.0158 24.4794C90.973 24.1586 90.8768 23.87 90.7271 23.6134C90.5774 23.3568 90.3636 23.1536 90.0856 23.004C89.8183 22.8543 89.4815 22.7794 89.0753 22.7794C88.669 22.7794 88.3001 22.8703 87.9687 23.0521C87.648 23.2231 87.3914 23.4851 87.1989 23.8379C87.0172 24.18 86.9263 24.6023 86.9263 25.1048V25.2652C86.9263 25.7677 87.0172 26.1954 87.1989 26.5482C87.3914 26.8903 87.648 27.1522 87.9687 27.334C88.3001 27.5051 88.669 27.5906 89.0753 27.5906C89.6847 27.5906 90.1444 27.4356 90.4545 27.1255C90.7752 26.8048 90.9783 26.3878 91.0639 25.8746L93.0204 26.3397C92.8814 26.9063 92.6409 27.4249 92.2987 27.8953C91.9673 28.355 91.529 28.7185 90.9837 28.9858C90.4384 29.2531 89.7862 29.3868 89.0272 29.3868ZM97.6702 29.3868C96.879 29.3868 96.1787 29.221 95.5693 28.8896C94.9706 28.5475 94.5002 28.0717 94.1581 27.4623C93.8266 26.8422 93.6609 26.1152 93.6609 25.2812V25.0888C93.6609 24.2549 93.8266 23.5332 94.1581 22.9238C94.4895 22.3037 94.9546 21.8279 95.5533 21.4965C96.152 21.1543 96.847 20.9833 97.6381 20.9833C98.4186 20.9833 99.0975 21.1597 99.6748 21.5125C100.252 21.8546 100.701 22.3357 101.022 22.9558C101.343 23.5653 101.503 24.2762 101.503 25.0888V25.7784H95.7137C95.735 26.3236 95.9382 26.7673 96.3231 27.1095C96.708 27.4516 97.1784 27.6227 97.7343 27.6227C98.301 27.6227 98.718 27.4997 98.9852 27.2538C99.2525 27.0079 99.4557 26.7353 99.5947 26.4359L101.246 27.3019C101.097 27.5799 100.878 27.8846 100.589 28.216C100.311 28.5368 99.9368 28.8148 99.4664 29.05C98.9959 29.2745 98.3972 29.3868 97.6702 29.3868ZM95.7297 24.2709H99.4503C99.4076 23.8112 99.2205 23.4423 98.889 23.1643C98.5683 22.8863 98.146 22.7474 97.6221 22.7474C97.0768 22.7474 96.6438 22.8863 96.3231 23.1643C96.0023 23.4423 95.8045 23.8112 95.7297 24.2709ZM105.691 29.2905C105.071 29.2905 104.526 29.1515 104.055 28.8736C103.596 28.5849 103.237 28.1893 102.981 27.6868C102.724 27.1843 102.596 26.607 102.596 25.9548V21.2078H104.617V25.7944C104.617 26.3931 104.761 26.8422 105.05 27.1415C105.349 27.4409 105.771 27.5906 106.317 27.5906C106.937 27.5906 107.418 27.3874 107.76 26.9812C108.102 26.5642 108.273 25.9869 108.273 25.2492V21.2078H110.294V29.1622H108.305V28.1198H108.017C107.888 28.3871 107.648 28.649 107.295 28.9056C106.942 29.1622 106.407 29.2905 105.691 29.2905ZM114.948 29.1622C114.424 29.1622 113.996 29.0019 113.665 28.6811C113.344 28.3497 113.184 27.9113 113.184 27.3661V22.8757H111.195V21.2078H113.184V18.7381H115.205V21.2078H117.386V22.8757H115.205V27.0132C115.205 27.334 115.354 27.4944 115.654 27.4944H117.193V29.1622H114.948ZM118.573 29.1622V21.2078H120.594V29.1622H118.573ZM119.584 20.2776C119.22 20.2776 118.91 20.16 118.653 19.9248C118.408 19.6896 118.285 19.3795 118.285 18.9947C118.285 18.6098 118.408 18.2997 118.653 18.0645C118.91 17.8293 119.22 17.7117 119.584 17.7117C119.958 17.7117 120.268 17.8293 120.514 18.0645C120.76 18.2997 120.883 18.6098 120.883 18.9947C120.883 19.3795 120.76 19.6896 120.514 19.9248C120.268 20.16 119.958 20.2776 119.584 20.2776ZM125.928 29.3868C125.159 29.3868 124.458 29.2264 123.827 28.9056C123.207 28.5849 122.716 28.1198 122.352 27.5104C121.989 26.901 121.807 26.1633 121.807 25.2973V25.0727C121.807 24.2067 121.989 23.469 122.352 22.8596C122.716 22.2502 123.207 21.7851 123.827 21.4644C124.458 21.1436 125.159 20.9833 125.928 20.9833C126.687 20.9833 127.34 21.1169 127.885 21.3842C128.43 21.6515 128.869 22.0203 129.2 22.4908C129.542 22.9505 129.767 23.4744 129.874 24.0624L127.917 24.4794C127.874 24.1586 127.778 23.87 127.628 23.6134C127.479 23.3568 127.265 23.1536 126.987 23.004C126.72 22.8543 126.383 22.7794 125.976 22.7794C125.57 22.7794 125.201 22.8703 124.87 23.0521C124.549 23.2231 124.293 23.4851 124.1 23.8379C123.918 24.18 123.827 24.6023 123.827 25.1048V25.2652C123.827 25.7677 123.918 26.1954 124.1 26.5482C124.293 26.8903 124.549 27.1522 124.87 27.334C125.201 27.5051 125.57 27.5906 125.976 27.5906C126.586 27.5906 127.046 27.4356 127.356 27.1255C127.676 26.8048 127.88 26.3878 127.965 25.8746L129.922 26.3397C129.783 26.9063 129.542 27.4249 129.2 27.8953C128.869 28.355 128.43 28.7185 127.885 28.9858C127.34 29.2531 126.687 29.3868 125.928 29.3868ZM133.417 29.3868C132.85 29.3868 132.342 29.2905 131.893 29.0981C131.444 28.8949 131.086 28.6063 130.819 28.2321C130.562 27.8472 130.434 27.3821 130.434 26.8368C130.434 26.2916 130.562 25.8372 130.819 25.4737C131.086 25.0995 131.449 24.8215 131.909 24.6397C132.38 24.4473 132.914 24.3511 133.513 24.3511H135.694V23.902C135.694 23.5278 135.576 23.2231 135.341 22.9879C135.106 22.742 134.732 22.6191 134.219 22.6191C133.716 22.6191 133.342 22.7367 133.096 22.9719C132.85 23.1964 132.69 23.4904 132.615 23.8539L130.755 23.2285C130.883 22.8222 131.086 22.4533 131.364 22.1219C131.653 21.7798 132.032 21.5071 132.503 21.304C132.984 21.0902 133.566 20.9833 134.251 20.9833C135.298 20.9833 136.127 21.2452 136.736 21.7691C137.346 22.293 137.651 23.0521 137.651 24.0464V27.0132C137.651 27.334 137.8 27.4944 138.1 27.4944H138.741V29.1622H137.394C136.998 29.1622 136.672 29.066 136.416 28.8736C136.159 28.6811 136.031 28.4245 136.031 28.1038V28.0877H135.726C135.683 28.216 135.587 28.3871 135.437 28.6009C135.288 28.8041 135.053 28.9858 134.732 29.1462C134.411 29.3066 133.973 29.3868 133.417 29.3868ZM133.77 27.751C134.336 27.751 134.796 27.5959 135.149 27.2859C135.512 26.9651 135.694 26.5428 135.694 26.0189V25.8586H133.657C133.283 25.8586 132.989 25.9388 132.775 26.0991C132.561 26.2595 132.454 26.484 132.454 26.7727C132.454 27.0614 132.567 27.2966 132.791 27.4783C133.016 27.6601 133.342 27.751 133.77 27.751ZM139.577 29.1622V17.9362H141.598V29.1622H139.577Z" fill="#0060C7"/>
<path d="M20.8569 13.4839C20.8564 13.4839 20.8558 13.484 20.8553 13.4843C17.046 15.5075 14.3733 16.4516 13.3348 19.7221C13.2668 19.9371 13.1868 20.1607 13.1035 20.4536C13.0523 20.6336 12.7453 20.6338 12.6939 20.4539C12.6114 20.1653 12.5324 19.9436 12.4658 19.731C11.4273 16.4602 8.75426 15.5163 4.94457 13.4928C2.51519 12.203 1.26084 11.3082 0.62006 10.707C0.480498 10.576 0 10.7356 0 10.927V19.2261C0 20.7874 0.838665 22.2381 2.18946 23.0197L10.7456 27.9607C10.9551 28.0822 11.1507 28.1843 11.35 28.2675C11.4739 28.3192 11.5946 28.2035 11.5558 28.0749C11.4721 27.7971 11.3774 27.5073 11.2703 27.2041C9.36548 21.8636 6.41507 19.3936 4.87647 18.415C4.71217 18.3105 4.7876 18.1146 4.96775 18.1886C5.91445 18.5771 7.41055 19.4307 9.2182 21.2977C10.6682 22.7969 11.8232 24.5749 12.7553 26.4342C12.8166 26.5565 12.9905 26.5629 13.0583 26.444C13.5767 25.534 15.2617 22.6546 16.5842 21.2888C18.3919 19.4218 19.888 18.5681 20.8347 18.1796C21.0148 18.1057 21.0902 18.3015 20.9259 18.406C19.3873 19.3847 16.4369 21.8547 14.5321 27.1952C14.4237 27.4984 14.3296 27.7881 14.2463 28.0659C14.2078 28.1945 14.3284 28.3101 14.4522 28.2581C14.6511 28.1746 14.8462 28.0721 15.0568 27.9518L23.6129 23.0108C24.9655 22.2292 25.8024 20.7785 25.8024 19.2171V10.9298C25.8024 10.7381 25.3142 10.5752 25.1741 10.706C24.5305 11.3068 23.2761 12.1988 20.8586 13.4834C20.8581 13.4837 20.8575 13.4839 20.8569 13.4839V13.4839Z" fill="#28A745"/>
<path fill-rule="evenodd" clip-rule="evenodd" d="M25.0444 6.84942C24.6696 6.25164 24.2235 5.89655 23.5936 5.53253L15.025 0.586175C13.6724 -0.195392 11.9915 -0.195392 10.6389 0.586175L2.07022 5.53253C1.39393 5.92331 0.48746 6.64421 0.416084 7.55425C0.255176 9.6054 2.75506 10.9282 4.59959 11.9043L4.60011 11.9046C4.69864 11.9567 4.79529 12.0079 4.88957 12.0581C5.27392 12.2627 5.642 12.4569 5.99488 12.6432L5.99489 12.6432C8.58438 14.0099 10.3555 14.9447 11.7327 16.3549C11.9997 16.6273 12.3842 17.0583 12.6407 17.4658C12.7209 17.5932 12.9431 17.5933 13.0233 17.4659C13.2802 17.0584 13.6655 16.6273 13.9311 16.3549C15.3105 14.9425 17.0835 14.007 19.6804 12.6369C20.0298 12.4526 20.3941 12.2604 20.7743 12.0581C20.9023 11.99 21.0345 11.9207 21.1697 11.8498C22.9697 10.9057 25.2959 9.6855 25.2478 7.55604C25.2442 7.3776 25.1657 7.0457 25.0444 6.84942ZM11.1763 3.03353H14.5333V6.12814H17.628V9.48516H14.5333V12.5801H11.1763V9.48516H8.08149V6.12814H11.1763V3.03353Z" fill="#0060C7"/>
<rect x="5.91553" y="29.4082" width="13.9435" height="2.53519" rx="0.169012" fill="#28A745"/>
</svg>
