<svg width="90" height="112" viewBox="0 0 90 112" fill="none" xmlns="http://www.w3.org/2000/svg">
<path d="M72.5525 46.9047C72.5505 46.9047 72.5484 46.9052 72.5466 46.9061C59.2958 53.944 49.9985 57.228 46.3862 68.6049C46.1495 69.3526 45.8712 70.1306 45.5815 71.1494C45.4035 71.7754 44.3354 71.7763 44.1566 71.1505C43.8697 70.1464 43.595 69.3753 43.3633 68.636C39.7507 57.2582 30.4524 53.9746 17.2001 46.9357C8.74929 42.449 4.38594 39.3364 2.15692 37.245C1.67145 36.7894 0 37.3446 0 38.0103V66.8793C0 72.3106 2.91736 77.357 7.61619 80.0758L37.3796 97.2634C38.1081 97.6863 38.7885 98.0413 39.4819 98.3306C39.913 98.5104 40.3326 98.1079 40.1978 97.6607C39.9068 96.6943 39.5773 95.6863 39.2045 94.6316C32.5786 76.0543 22.3153 67.4622 16.9632 64.0579C16.3916 63.6943 16.654 63.0132 17.2807 63.2703C20.5739 64.6217 25.7782 67.5912 32.0662 74.0859C37.1101 79.3008 41.128 85.4857 44.3703 91.9532C44.5837 92.3789 45.1885 92.4012 45.4242 91.9874C47.2275 88.8219 53.089 78.8057 57.6894 74.0548C63.9775 67.5601 69.1818 64.5907 72.475 63.2393C73.1016 62.9821 73.364 63.6633 72.7925 64.0268C67.4403 67.4312 57.1771 76.0232 50.5512 94.6006C50.1739 95.6551 49.8466 96.6631 49.5569 97.6294C49.4228 98.0768 49.8425 98.4788 50.2731 98.2979C50.9649 98.0073 51.6437 97.6509 52.3761 97.2324L82.1395 80.0447C86.8445 77.326 89.7557 72.2796 89.7557 66.8483V38.0202C89.7557 37.3532 88.0575 36.7866 87.57 37.2417C85.3313 39.3314 80.9678 42.4345 72.5584 46.9032C72.5566 46.9041 72.5545 46.9047 72.5525 46.9047Z" fill="#28A745"/>
<path fill-rule="evenodd" clip-rule="evenodd" d="M87.1184 23.8262C85.8149 21.7468 84.2631 20.5116 82.072 19.2453L52.2652 2.03906C47.5602 -0.679685 41.713 -0.679685 37.008 2.03906L7.20114 19.2453C4.84862 20.6047 1.69539 23.1124 1.4471 26.2781C0.887373 33.4131 9.58341 38.0147 15.9998 41.41C16.3431 41.5917 16.6799 41.77 17.0085 41.945C18.3455 42.6566 19.6259 43.3324 20.8534 43.9803L20.8534 43.9803C29.8612 48.7346 36.0221 51.9863 40.813 56.8918C41.7415 57.8395 43.0793 59.3387 43.9714 60.7562C44.2503 61.1994 45.0231 61.1995 45.3023 60.7565C46.1959 59.3389 47.5363 57.8395 48.4602 56.8918C53.2584 51.9788 59.4261 48.7246 68.4596 43.9584L68.4632 43.9565C69.6774 43.3159 70.9434 42.6479 72.2647 41.945C72.71 41.7082 73.1699 41.467 73.6401 41.2204C79.9014 37.9362 87.9935 33.6918 87.8261 26.2843C87.8137 25.6635 87.5405 24.509 87.1184 23.8262ZM38.8776 10.5524H50.5553V21.3172H61.3204V32.9949H50.5553V43.7607H38.8776V32.9949H28.112V21.3172H38.8776V10.5524Z" fill="#0060C7"/>
<rect x="20.5771" y="102.299" width="48.5036" height="8.81884" rx="0.587923" fill="#28A745"/>
</svg>
